<svg width="267" height="100" xmlns="http://www.w3.org/2000/svg"><g transform="translate(0, 29)" fill-rule="nonzero" fill="none"><path d="M25.467 68.214a7.685 7.685 0 0 0 6.96 0L51.823 58.11a7.522 7.522 0 0 0 4.072-6.7V27.866a7.466 7.466 0 0 0-4.072-6.663L32.427 11.098a7.464 7.464 0 0 0-6.96 0L6.071 21.203a7.466 7.466 0 0 0-4.072 6.663V51.41a7.522 7.522 0 0 0 4.072 6.7l19.396 10.105Zm5.33-2.813a4.273 4.273 0 0 1-3.849-.074L7.551 55.258l-.148-.074A4.4 4.4 0 0 1 5.22 51.41v-23.69c.074-1.556.963-2.962 2.332-3.666l19.397-10.105.148-.074a4.52 4.52 0 0 1 3.85.074l19.397 10.105.148.075c1.332.74 2.184 2.183 2.184 3.775v23.654c-.037 1.555-.963 2.961-2.332 3.701L30.946 65.327l-.148.074Zm.815-13.289c.37 0 .704-.296.74-.666l1.037-11.55h7.033c.185 0 .37-.11.444-.296.074-.148.037-.333-.074-.48L29.021 25.792 17.25 39.12c-.111.148-.148.333-.074.481.074.186.259.297.444.297h7.033l1.037 11.549c.037.37.37.666.74.666h5.182Zm42.385 1.814a9.59 9.59 0 0 0 4.516-1.11c1.407-.704 2.517-1.666 3.443-2.85l.037 3.257h4.33l-.036-25.801h-4.331v15.066c0 1.295-.333 2.48-.926 3.553-.666 1.037-1.517 1.925-2.554 2.555a7.261 7.261 0 0 1-3.553.925 7.261 7.261 0 0 1-3.554-.925c-1.073-.63-1.925-1.518-2.554-2.555-.666-1.073-.963-2.258-.963-3.553V27.422h-4.33V43.45c0 1.925.444 3.702 1.406 5.257.926 1.591 2.184 2.85 3.776 3.812 1.592.926 3.331 1.407 5.293 1.407Zm21.064 9.587V48.818a10.323 10.323 0 0 0 3.48 3.664c1.48.963 3.22 1.407 5.219 1.407 1.887 0 3.627-.333 5.293-1.037a13.876 13.876 0 0 0 4.33-2.96c1.222-1.222 2.185-2.666 2.888-4.332a13.394 13.394 0 0 0 1.074-5.293c0-1.888-.37-3.628-1.074-5.257-.703-1.628-1.666-3.072-2.887-4.294a13.766 13.766 0 0 0-4.331-2.924 13.394 13.394 0 0 0-5.293-1.073c-2 0-3.74.48-5.22 1.406-1.443.963-2.628 2.184-3.48 3.702v-4.405h-4.33v36.091h4.33Zm8.662-13.844c-1.703 0-3.147-.444-4.405-1.259-1.259-.851-2.221-1.998-2.888-3.405a11.108 11.108 0 0 1-1.036-4.738c0-1.74.37-3.295 1.036-4.701a8.115 8.115 0 0 1 2.888-3.406c1.258-.814 2.739-1.221 4.405-1.221 1.702 0 3.257.407 4.627 1.221a9.473 9.473 0 0 1 3.331 3.406c.852 1.406 1.259 2.998 1.259 4.7a9.479 9.479 0 0 1-1.259 4.776c-.851 1.407-1.962 2.554-3.368 3.368-1.407.852-2.925 1.259-4.59 1.259Zm21.951 3.554V19.537h-4.33v33.686h4.33Zm17.325.666c1.777 0 3.443-.37 4.997-1.037a13.614 13.614 0 0 0 4.11-2.924 13.988 13.988 0 0 0 2.776-4.33c.703-1.63 1.036-3.406 1.036-5.257 0-2.517-.592-4.812-1.777-6.885-1.147-2.036-2.702-3.702-4.664-4.924-1.962-1.221-4.109-1.813-6.478-1.813-1.814 0-3.442.333-5.034 1.036a14.088 14.088 0 0 0-4.109 2.924c-1.147 1.259-2.11 2.703-2.776 4.331-.666 1.63-.963 3.406-.963 5.33 0 2.48.556 4.776 1.74 6.812 1.148 2.036 2.702 3.702 4.664 4.923 1.925 1.222 4.11 1.814 6.478 1.814Zm0-4.331a7.937 7.937 0 0 1-4.294-1.222c-1.295-.814-2.332-1.924-3.11-3.331-.777-1.37-1.147-2.961-1.147-4.664 0-1.703.333-3.22 1.11-4.627a9.089 9.089 0 0 1 3.073-3.406c1.259-.851 2.74-1.258 4.368-1.258 1.592 0 3.036.407 4.331 1.258a9.63 9.63 0 0 1 3.072 3.369c.778 1.406 1.148 2.961 1.148 4.664 0 1.666-.37 3.183-1.11 4.59a9.266 9.266 0 0 1-3.073 3.368c-1.295.852-2.776 1.259-4.368 1.259Zm29.133 4.33c1.925 0 3.628-.443 5.034-1.369 1.37-.888 2.407-2.036 3.22-3.405l.149-.26.185 4.369h4.331V27.422h-4.33l.147 4.405c-.962-1.48-2.184-2.74-3.739-3.702-1.517-.925-3.294-1.406-5.33-1.406-1.85 0-3.59.333-5.22 1.036a13.971 13.971 0 0 0-4.256 2.887c-1.222 1.222-2.184 2.666-2.887 4.294-.667 1.63-1 3.369-1 5.22 0 1.888.333 3.664 1.037 5.33a13.62 13.62 0 0 0 2.96 4.368 13.62 13.62 0 0 0 4.369 2.961 13.442 13.442 0 0 0 5.33 1.074Zm-.11-4.182c-1.63 0-3.147-.444-4.554-1.259-1.406-.85-2.517-1.961-3.331-3.368a9.11 9.11 0 0 1-1.296-4.738c0-1.74.407-3.332 1.222-4.738.851-1.444 1.924-2.554 3.331-3.406 1.407-.851 2.924-1.258 4.627-1.258 1.703 0 3.184.407 4.405 1.258 1.259.815 2.221 1.962 2.924 3.369.667 1.406 1 2.998 1 4.775 0 1.703-.333 3.294-1 4.7a8.115 8.115 0 0 1-2.887 3.406c-1.258.815-2.74 1.259-4.442 1.259Zm29.725 4.183c1.961 0 3.701-.444 5.182-1.37 1.48-.962 2.665-2.184 3.516-3.664v4.368h4.331V19.537h-4.33V31.79a10.113 10.113 0 0 0-3.517-3.665c-1.48-.925-3.22-1.406-5.182-1.406-1.888 0-3.665.407-5.294 1.073-1.629.703-3.072 1.703-4.33 2.924a13.517 13.517 0 0 0-2.925 4.368c-.703 1.63-1.037 3.369-1.037 5.257 0 1.85.334 3.59 1.037 5.256.703 1.629 1.666 3.073 2.924 4.294 1.259 1.259 2.702 2.221 4.331 2.961 1.629.704 3.406 1.037 5.294 1.037Zm0-4.183c-1.63 0-3.147-.444-4.554-1.259a10 10 0 0 1-3.331-3.368 9.11 9.11 0 0 1-1.296-4.738c0-1.74.445-3.332 1.259-4.738.851-1.444 1.925-2.554 3.294-3.369 1.407-.888 2.925-1.295 4.628-1.295 1.74 0 3.183.407 4.442 1.258 1.221.815 2.183 1.962 2.887 3.369.703 1.443 1.036 3.035 1.036 4.775 0 1.74-.333 3.294-1.036 4.738a8.242 8.242 0 0 1-2.887 3.368c-1.26.815-2.703 1.259-4.442 1.259Zm30.317 4.183c2.554 0 4.886-.74 6.96-2.184 1.998-1.407 3.516-3.147 4.552-5.368l.111-.259-4.405-1.036c-.777 1.407-1.813 2.48-3.035 3.331a7.85 7.85 0 0 1-4.183 1.185c-1.48 0-2.776-.37-3.96-1.037-1.185-.703-2.148-1.591-2.888-2.739a9.18 9.18 0 0 1-1.407-3.627l-.037-.26h21.026a16.489 16.489 0 0 0-.63-5.922c-.592-1.814-1.443-3.406-2.59-4.812-1.185-1.407-2.592-2.517-4.183-3.295-1.63-.777-3.406-1.147-5.33-1.147-1.815 0-3.48.333-5.035 1.036a12.835 12.835 0 0 0-4.109 2.924 13.988 13.988 0 0 0-2.776 4.331c-.667 1.666-1 3.406-1 5.33 0 2.48.593 4.739 1.74 6.775 1.148 2.073 2.74 3.739 4.664 4.923 1.962 1.222 4.109 1.85 6.515 1.85Zm8.366-15.399H223.66c.185-1.48.667-2.813 1.444-3.998a9.069 9.069 0 0 1 2.961-2.85c1.185-.74 2.517-1.074 3.998-1.074 1.444 0 2.74.37 3.96 1.11a8.835 8.835 0 0 1 3 2.851c.814 1.185 1.258 2.517 1.406 3.961Zm13.105 14.733V38.157c0-1.296.333-2.48.962-3.554.63-1.073 1.48-1.925 2.554-2.59 1.074-.63 2.258-.926 3.554-.926.666 0 1.37.11 2.073.333l1.777-4.331a11.15 11.15 0 0 0-2.925-.407c-1.628 0-3.146.37-4.516 1.073-1.406.74-2.554 1.666-3.48 2.887v-3.22h-4.33v25.8h4.33Z" stroke="#3E495D" stroke-width=".552" fill="#525862"/><path d="M55.234 16.116c.61 0 1.165-.105 1.669-.315a3.21 3.21 0 0 0 1.27-.946V16h1.975V7.136h-2.075v1.079a3.484 3.484 0 0 0-1.253-.88 4.107 4.107 0 0 0-1.586-.299c-.863 0-1.635.188-2.315.564a4.03 4.03 0 0 0-1.594 1.586c-.382.68-.573 1.474-.573 2.382 0 .907.191 1.704.573 2.39a4.014 4.014 0 0 0 1.594 1.594c.68.376 1.452.564 2.315.564Zm.233-1.776c-.764 0-1.392-.255-1.884-.764-.493-.509-.739-1.178-.739-2.008 0-.83.246-1.5.739-2.009.492-.509 1.12-.763 1.884-.763.763 0 1.394.254 1.892.763.498.51.747 1.179.747 2.009 0 .83-.249 1.5-.747 2.008-.498.51-1.129.764-1.892.764ZM64.945 16v-4.482c0-.863.222-1.524.664-1.984.443-.459 1.046-.689 1.81-.689.675 0 1.195.197 1.56.59.365.393.548.976.548 1.751V16h2.075v-5.08c0-1.283-.338-2.252-1.013-2.905-.675-.653-1.571-.979-2.689-.979-.653 0-1.24.105-1.76.315-.52.21-.951.52-1.294.93V7.136H62.87V16h2.075Zm13.314 3.337c3.187 0 4.78-1.56 4.78-4.682v-7.52h-1.975v1.18a3.23 3.23 0 0 0-1.32-.964 4.677 4.677 0 0 0-1.751-.315c-.841 0-1.602.177-2.282.531A4.013 4.013 0 0 0 74.1 9.07c-.394.648-.59 1.392-.59 2.233 0 .841.196 1.588.59 2.241.392.653.929 1.16 1.61 1.52.68.359 1.441.539 2.282.539.609 0 1.168-.1 1.677-.3.509-.198.94-.492 1.294-.879v.465c0 .907-.226 1.582-.68 2.025-.454.443-1.168.664-2.142.664a5.76 5.76 0 0 1-1.8-.29c-.593-.194-1.082-.451-1.47-.772l-.93 1.56c.499.41 1.13.722 1.893.938a8.872 8.872 0 0 0 2.424.324Zm.05-5.495c-.797 0-1.448-.235-1.951-.706-.504-.47-.755-1.081-.755-1.834 0-.741.251-1.344.755-1.81.503-.464 1.154-.696 1.95-.696.786 0 1.43.232 1.934.697.504.465.756 1.068.756 1.81 0 .752-.252 1.363-.756 1.833-.503.47-1.148.706-1.934.706Zm11.204 2.274c.576 0 1.113-.108 1.61-.323a3.302 3.302 0 0 0 1.246-.922V16h1.975V7.136h-2.075v4.482c0 .863-.219 1.524-.656 1.983-.437.46-1.026.69-1.768.69-.664 0-1.175-.197-1.535-.59-.36-.393-.54-.988-.54-1.785v-4.78h-2.075v5.063c0 1.294.34 2.271 1.021 2.93.68.658 1.613.987 2.797.987Zm10.475 0c.443 0 .858-.072 1.245-.216l-.1-1.66c-.22.111-.47.166-.747.166-.83 0-1.245-.442-1.245-1.328V3.683h-2.075v9.545c0 .918.258 1.63.772 2.133.515.503 1.231.755 2.15.755Zm6.408 0c.608 0 1.164-.105 1.668-.315a3.21 3.21 0 0 0 1.27-.946V16h1.975V7.136h-2.075v1.079a3.484 3.484 0 0 0-1.253-.88 4.107 4.107 0 0 0-1.585-.299c-.864 0-1.635.188-2.316.564a4.03 4.03 0 0 0-1.594 1.586c-.381.68-.572 1.474-.572 2.382 0 .907.19 1.704.572 2.39a4.014 4.014 0 0 0 1.594 1.594c.68.376 1.452.564 2.316.564Zm.232-1.776c-.764 0-1.392-.255-1.884-.764-.493-.509-.739-1.178-.739-2.008 0-.83.246-1.5.739-2.009.492-.509 1.12-.763 1.884-.763.764 0 1.394.254 1.892.763.498.51.747 1.179.747 2.009 0 .83-.249 1.5-.747 2.008-.498.51-1.128.764-1.892.764Zm9.479 1.66v-4.3c0-.885.226-1.563.68-2.033.454-.47 1.085-.705 1.893-.705.143 0 .304.016.481.05V7.035c-1.505 0-2.556.465-3.154 1.394V7.136h-1.975V16h2.075Z" fill="#88909E"/></g></svg>
